<svg width="33" height="15" viewBox="0 0 33 15" fill="none" xmlns="http://www.w3.org/2000/svg">
<path d="M33 0H10.1538L0 8L10.1538 15H33V0Z" fill="#DD1C26"/>
<circle cx="12.5" cy="7.5" r="2.5" fill="white"/>
<path d="M23.5547 11H17.8184V10.0215L20.6602 6.92188C21.0703 6.46484 21.3613 6.08398 21.5332 5.7793C21.709 5.4707 21.7969 5.16211 21.7969 4.85352C21.7969 4.44727 21.6816 4.11914 21.4512 3.86914C21.2246 3.61914 20.918 3.49414 20.5312 3.49414C20.0703 3.49414 19.7129 3.63477 19.459 3.91602C19.2051 4.19727 19.0781 4.58203 19.0781 5.07031H17.6543C17.6543 4.55078 17.7715 4.08398 18.0059 3.66992C18.2441 3.25195 18.582 2.92773 19.0195 2.69727C19.4609 2.4668 19.9688 2.35156 20.543 2.35156C21.3711 2.35156 22.0234 2.56055 22.5 2.97852C22.9805 3.39258 23.2207 3.9668 23.2207 4.70117C23.2207 5.12695 23.0996 5.57422 22.8574 6.04297C22.6191 6.50781 22.2266 7.03711 21.6797 7.63086L19.5938 9.86328H23.5547V11ZM30.1992 7.4082C30.1992 8.63477 29.9688 9.56055 29.5078 10.1855C29.0508 10.8066 28.3535 11.1172 27.416 11.1172C26.4941 11.1172 25.7988 10.8145 25.3301 10.209C24.8652 9.59961 24.627 8.69922 24.6152 7.50781V6.03125C24.6152 4.80469 24.8438 3.88477 25.3008 3.27148C25.7617 2.6582 26.4629 2.35156 27.4043 2.35156C28.3379 2.35156 29.0332 2.65039 29.4902 3.24805C29.9512 3.8457 30.1875 4.74023 30.1992 5.93164V7.4082ZM28.7754 5.81445C28.7754 5.01367 28.666 4.42773 28.4473 4.05664C28.2285 3.68164 27.8809 3.49414 27.4043 3.49414C26.9395 3.49414 26.5977 3.67187 26.3789 4.02734C26.1602 4.37891 26.0449 4.92969 26.0332 5.67969V7.61328C26.0332 8.41016 26.1445 9.00391 26.3672 9.39453C26.5898 9.78516 26.9395 9.98047 27.416 9.98047C27.873 9.98047 28.2109 9.80078 28.4297 9.44141C28.6484 9.07812 28.7637 8.51172 28.7754 7.74219V5.81445Z" fill="white"/>
</svg>
